<?xml version="1.0" encoding="UTF-8" standalone="no"?>
<!DOCTYPE svg PUBLIC "-//W3C//DTD SVG 1.1//EN"
 "http://www.w3.org/Graphics/SVG/1.1/DTD/svg11.dtd">
<!-- Generated by graphviz version 2.47.3 (20210619.1520)
 -->
<!-- Title: dependencies Pages: 1 -->
<svg width="2118pt" height="247pt"
 viewBox="0.00 0.00 2118.00 246.80" xmlns="http://www.w3.org/2000/svg" xmlns:xlink="http://www.w3.org/1999/xlink">
<g id="graph0" class="graph" transform="scale(1 1) rotate(0) translate(4 242.8)">
<title>dependencies</title>
<polygon fill="white" stroke="transparent" points="-4,4 -4,-242.8 2114,-242.8 2114,4 -4,4"/>
<text text-anchor="middle" x="1055" y="-8.2" font-family="sans-serif" font-size="14.00">dependencies</text>
<g id="clust1" class="cluster">
<title>cluster_AppModule</title>
<polygon fill="none" stroke="black" stroke-dasharray="1,5" points="8,-32.8 8,-230.8 2102,-230.8 2102,-32.8 8,-32.8"/>
</g>
<g id="clust2" class="cluster">
<title>cluster_AppModule_declarations</title>
<polygon fill="none" stroke="black" points="168,-40.8 168,-92.8 2094,-92.8 2094,-40.8 168,-40.8"/>
</g>
<g id="clust16" class="cluster">
<title>cluster_AppModule_imports</title>
<polygon fill="none" stroke="black" points="16,-40.8 16,-92.8 160,-92.8 160,-40.8 16,-40.8"/>
</g>
<g id="clust18" class="cluster">
<title>cluster_AppModule_bootstrap</title>
<polygon fill="none" stroke="black" points="1031,-170.8 1031,-222.8 1155,-222.8 1155,-170.8 1031,-170.8"/>
</g>
<!-- AlertasComponent -->
<g id="node1" class="node">
<title>AlertasComponent</title>
<polygon fill="#ffffb3" stroke="black" points="2085.75,-84.8 1964.25,-84.8 1964.25,-48.8 2085.75,-48.8 2085.75,-84.8"/>
<text text-anchor="middle" x="2025" y="-62.6" font-family="Times,serif" font-size="14.00">AlertasComponent</text>
</g>
<!-- AppModule -->
<g id="node14" class="node">
<title>AppModule</title>
<polygon fill="#8dd3c7" stroke="black" points="1134.66,-149.8 1131.66,-153.8 1110.66,-153.8 1107.66,-149.8 1051.34,-149.8 1051.34,-113.8 1134.66,-113.8 1134.66,-149.8"/>
<text text-anchor="middle" x="1093" y="-127.6" font-family="Times,serif" font-size="14.00">AppModule</text>
</g>
<!-- AlertasComponent&#45;&gt;AppModule -->
<g id="edge1" class="edge">
<title>AlertasComponent&#45;&gt;AppModule</title>
<path fill="none" stroke="black" d="M2025,-84.89C2025,-107.93 2025,-144.8 2025,-144.8 2025,-144.8 1144.86,-144.8 1144.86,-144.8"/>
<polygon fill="black" stroke="black" points="1144.86,-141.3 1134.86,-144.8 1144.86,-148.3 1144.86,-141.3"/>
</g>
<!-- AppComponent -->
<g id="node2" class="node">
<title>AppComponent</title>
<polygon fill="#ffffb3" stroke="black" points="1945.94,-84.8 1840.06,-84.8 1840.06,-48.8 1945.94,-48.8 1945.94,-84.8"/>
<text text-anchor="middle" x="1893" y="-62.6" font-family="Times,serif" font-size="14.00">AppComponent</text>
</g>
<!-- AppComponent&#45;&gt;AppModule -->
<g id="edge2" class="edge">
<title>AppComponent&#45;&gt;AppModule</title>
<path fill="none" stroke="black" d="M1893,-84.84C1893,-106.46 1893,-139.8 1893,-139.8 1893,-139.8 1144.89,-139.8 1144.89,-139.8"/>
<polygon fill="black" stroke="black" points="1144.89,-136.3 1134.89,-139.8 1144.89,-143.3 1144.89,-136.3"/>
</g>
<!-- CadastrarComponent -->
<g id="node3" class="node">
<title>CadastrarComponent</title>
<polygon fill="#ffffb3" stroke="black" points="1822.47,-84.8 1687.53,-84.8 1687.53,-48.8 1822.47,-48.8 1822.47,-84.8"/>
<text text-anchor="middle" x="1755" y="-62.6" font-family="Times,serif" font-size="14.00">CadastrarComponent</text>
</g>
<!-- CadastrarComponent&#45;&gt;AppModule -->
<g id="edge3" class="edge">
<title>CadastrarComponent&#45;&gt;AppModule</title>
<path fill="none" stroke="black" d="M1755,-85.02C1755,-105.17 1755,-134.8 1755,-134.8 1755,-134.8 1144.66,-134.8 1144.66,-134.8"/>
<polygon fill="black" stroke="black" points="1144.66,-131.3 1134.66,-134.8 1144.66,-138.3 1144.66,-131.3"/>
</g>
<!-- EntrarComponent -->
<g id="node4" class="node">
<title>EntrarComponent</title>
<polygon fill="#ffffb3" stroke="black" points="1669.31,-84.8 1552.69,-84.8 1552.69,-48.8 1669.31,-48.8 1669.31,-84.8"/>
<text text-anchor="middle" x="1611" y="-62.6" font-family="Times,serif" font-size="14.00">EntrarComponent</text>
</g>
<!-- EntrarComponent&#45;&gt;AppModule -->
<g id="edge4" class="edge">
<title>EntrarComponent&#45;&gt;AppModule</title>
<path fill="none" stroke="black" d="M1611,-85.02C1611,-103.63 1611,-129.8 1611,-129.8 1611,-129.8 1144.95,-129.8 1144.95,-129.8"/>
<polygon fill="black" stroke="black" points="1144.95,-126.3 1134.95,-129.8 1144.95,-133.3 1144.95,-126.3"/>
</g>
<!-- InicioComponent -->
<g id="node5" class="node">
<title>InicioComponent</title>
<polygon fill="#ffffb3" stroke="black" points="1534.99,-84.8 1421.01,-84.8 1421.01,-48.8 1534.99,-48.8 1534.99,-84.8"/>
<text text-anchor="middle" x="1478" y="-62.6" font-family="Times,serif" font-size="14.00">InicioComponent</text>
</g>
<!-- InicioComponent&#45;&gt;AppModule -->
<g id="edge5" class="edge">
<title>InicioComponent&#45;&gt;AppModule</title>
<path fill="none" stroke="black" d="M1478,-84.83C1478,-101.86 1478,-124.8 1478,-124.8 1478,-124.8 1144.93,-124.8 1144.93,-124.8"/>
<polygon fill="black" stroke="black" points="1144.93,-121.3 1134.93,-124.8 1144.93,-128.3 1144.93,-121.3"/>
</g>
<!-- MenuComponent -->
<g id="node6" class="node">
<title>MenuComponent</title>
<polygon fill="#ffffb3" stroke="black" points="1402.99,-84.8 1289.01,-84.8 1289.01,-48.8 1402.99,-48.8 1402.99,-84.8"/>
<text text-anchor="middle" x="1346" y="-62.6" font-family="Times,serif" font-size="14.00">MenuComponent</text>
</g>
<!-- MenuComponent&#45;&gt;AppModule -->
<g id="edge6" class="edge">
<title>MenuComponent&#45;&gt;AppModule</title>
<path fill="none" stroke="black" d="M1346,-85.04C1346,-100.37 1346,-119.8 1346,-119.8 1346,-119.8 1144.78,-119.8 1144.78,-119.8"/>
<polygon fill="black" stroke="black" points="1144.78,-116.3 1134.78,-119.8 1144.78,-123.3 1144.78,-116.3"/>
</g>
<!-- PostagemDeleteComponent -->
<g id="node7" class="node">
<title>PostagemDeleteComponent</title>
<polygon fill="#ffffb3" stroke="black" points="1271.3,-84.8 1098.7,-84.8 1098.7,-48.8 1271.3,-48.8 1271.3,-84.8"/>
<text text-anchor="middle" x="1185" y="-62.6" font-family="Times,serif" font-size="14.00">PostagemDeleteComponent</text>
</g>
<!-- PostagemDeleteComponent&#45;&gt;AppModule -->
<g id="edge7" class="edge">
<title>PostagemDeleteComponent&#45;&gt;AppModule</title>
<path fill="none" stroke="black" d="M1116.84,-84.91C1116.84,-84.91 1116.84,-103.79 1116.84,-103.79"/>
<polygon fill="black" stroke="black" points="1113.34,-103.79 1116.84,-113.79 1120.34,-103.79 1113.34,-103.79"/>
</g>
<!-- PostagemEditComponent -->
<g id="node8" class="node">
<title>PostagemEditComponent</title>
<polygon fill="#ffffb3" stroke="black" points="1080.6,-84.8 921.4,-84.8 921.4,-48.8 1080.6,-48.8 1080.6,-84.8"/>
<text text-anchor="middle" x="1001" y="-62.6" font-family="Times,serif" font-size="14.00">PostagemEditComponent</text>
</g>
<!-- PostagemEditComponent&#45;&gt;AppModule -->
<g id="edge8" class="edge">
<title>PostagemEditComponent&#45;&gt;AppModule</title>
<path fill="none" stroke="black" d="M1065.86,-84.91C1065.86,-84.91 1065.86,-103.79 1065.86,-103.79"/>
<polygon fill="black" stroke="black" points="1062.36,-103.79 1065.86,-113.79 1069.36,-103.79 1062.36,-103.79"/>
</g>
<!-- RodapeComponent -->
<g id="node9" class="node">
<title>RodapeComponent</title>
<polygon fill="#ffffb3" stroke="black" points="903.1,-84.8 778.9,-84.8 778.9,-48.8 903.1,-48.8 903.1,-84.8"/>
<text text-anchor="middle" x="841" y="-62.6" font-family="Times,serif" font-size="14.00">RodapeComponent</text>
</g>
<!-- RodapeComponent&#45;&gt;AppModule -->
<g id="edge9" class="edge">
<title>RodapeComponent&#45;&gt;AppModule</title>
<path fill="none" stroke="black" d="M841,-85.04C841,-100.37 841,-119.8 841,-119.8 841,-119.8 1041.1,-119.8 1041.1,-119.8"/>
<polygon fill="black" stroke="black" points="1041.1,-123.3 1051.1,-119.8 1041.1,-116.3 1041.1,-123.3"/>
</g>
<!-- TemaComponent -->
<g id="node10" class="node">
<title>TemaComponent</title>
<polygon fill="#ffffb3" stroke="black" points="760.7,-84.8 647.3,-84.8 647.3,-48.8 760.7,-48.8 760.7,-84.8"/>
<text text-anchor="middle" x="704" y="-62.6" font-family="Times,serif" font-size="14.00">TemaComponent</text>
</g>
<!-- TemaComponent&#45;&gt;AppModule -->
<g id="edge10" class="edge">
<title>TemaComponent&#45;&gt;AppModule</title>
<path fill="none" stroke="black" d="M704,-84.83C704,-101.86 704,-124.8 704,-124.8 704,-124.8 1041,-124.8 1041,-124.8"/>
<polygon fill="black" stroke="black" points="1041,-128.3 1051,-124.8 1041,-121.3 1041,-128.3"/>
</g>
<!-- TemaDeleteComponent -->
<g id="node11" class="node">
<title>TemaDeleteComponent</title>
<polygon fill="#ffffb3" stroke="black" points="629.74,-84.8 480.26,-84.8 480.26,-48.8 629.74,-48.8 629.74,-84.8"/>
<text text-anchor="middle" x="555" y="-62.6" font-family="Times,serif" font-size="14.00">TemaDeleteComponent</text>
</g>
<!-- TemaDeleteComponent&#45;&gt;AppModule -->
<g id="edge11" class="edge">
<title>TemaDeleteComponent&#45;&gt;AppModule</title>
<path fill="none" stroke="black" d="M555,-85.02C555,-103.63 555,-129.8 555,-129.8 555,-129.8 1041.23,-129.8 1041.23,-129.8"/>
<polygon fill="black" stroke="black" points="1041.23,-133.3 1051.23,-129.8 1041.23,-126.3 1041.23,-133.3"/>
</g>
<!-- TemaEditComponent -->
<g id="node12" class="node">
<title>TemaEditComponent</title>
<polygon fill="#ffffb3" stroke="black" points="462.04,-84.8 325.96,-84.8 325.96,-48.8 462.04,-48.8 462.04,-84.8"/>
<text text-anchor="middle" x="394" y="-62.6" font-family="Times,serif" font-size="14.00">TemaEditComponent</text>
</g>
<!-- TemaEditComponent&#45;&gt;AppModule -->
<g id="edge12" class="edge">
<title>TemaEditComponent&#45;&gt;AppModule</title>
<path fill="none" stroke="black" d="M394,-85.02C394,-105.17 394,-134.8 394,-134.8 394,-134.8 1041.11,-134.8 1041.11,-134.8"/>
<polygon fill="black" stroke="black" points="1041.11,-138.3 1051.11,-134.8 1041.11,-131.3 1041.11,-138.3"/>
</g>
<!-- UserEditComponent -->
<g id="node13" class="node">
<title>UserEditComponent</title>
<polygon fill="#ffffb3" stroke="black" points="307.59,-84.8 176.41,-84.8 176.41,-48.8 307.59,-48.8 307.59,-84.8"/>
<text text-anchor="middle" x="242" y="-62.6" font-family="Times,serif" font-size="14.00">UserEditComponent</text>
</g>
<!-- UserEditComponent&#45;&gt;AppModule -->
<g id="edge13" class="edge">
<title>UserEditComponent&#45;&gt;AppModule</title>
<path fill="none" stroke="black" d="M242,-84.84C242,-106.46 242,-139.8 242,-139.8 242,-139.8 1041.09,-139.8 1041.09,-139.8"/>
<polygon fill="black" stroke="black" points="1041.09,-143.3 1051.09,-139.8 1041.09,-136.3 1041.09,-143.3"/>
</g>
<!-- AppComponent  -->
<g id="node16" class="node">
<title>AppComponent </title>
<polygon fill="#80b1d3" stroke="black" points="1147.44,-214.8 1038.56,-214.8 1038.56,-178.8 1147.44,-178.8 1147.44,-214.8"/>
<text text-anchor="middle" x="1093" y="-192.6" font-family="Times,serif" font-size="14.00">AppComponent </text>
</g>
<!-- AppModule&#45;&gt;AppComponent  -->
<g id="edge15" class="edge">
<title>AppModule&#45;&gt;AppComponent </title>
<path fill="none" stroke="black" stroke-dasharray="1,5" d="M1093,-149.91C1093,-149.91 1093,-168.79 1093,-168.79"/>
<polygon fill="black" stroke="black" points="1089.5,-168.79 1093,-178.79 1096.5,-168.79 1089.5,-168.79"/>
</g>
<!-- AppRoutingModule -->
<g id="node15" class="node">
<title>AppRoutingModule</title>
<polygon fill="#8dd3c7" stroke="black" points="152.27,-84.8 149.27,-88.8 128.27,-88.8 125.27,-84.8 23.73,-84.8 23.73,-48.8 152.27,-48.8 152.27,-84.8"/>
<text text-anchor="middle" x="88" y="-62.6" font-family="Times,serif" font-size="14.00">AppRoutingModule</text>
</g>
<!-- AppRoutingModule&#45;&gt;AppModule -->
<g id="edge14" class="edge">
<title>AppRoutingModule&#45;&gt;AppModule</title>
<path fill="none" stroke="black" d="M88,-84.89C88,-107.93 88,-144.8 88,-144.8 88,-144.8 1041.1,-144.8 1041.1,-144.8"/>
<polygon fill="black" stroke="black" points="1041.1,-148.3 1051.1,-144.8 1041.1,-141.3 1041.1,-148.3"/>
</g>
</g>
</svg>
